<mxfile host="app.diagrams.net" agent="Mozilla/5.0 (Windows NT 10.0; Win64; x64) AppleWebKit/537.36 (KHTML, like Gecko) Chrome/129.0.0.0 Safari/537.36" version="24.7.17">
  <diagram name="StrÃ¡nka-1" id="AMTX95bu_S0ZK2PANM0k">
    <mxGraphModel dx="934" dy="494" grid="1" gridSize="10" guides="1" tooltips="1" connect="1" arrows="1" fold="1" page="1" pageScale="1" pageWidth="827" pageHeight="1169" math="0" shadow="0">
      <root>
        <mxCell id="0" />
        <mxCell id="1" parent="0" />
        <mxCell id="i9pwe_ZCIWaeu2GIBXmg-1" value="&lt;font style=&quot;font-size: 14px;&quot; face=&quot;Times New Roman&quot;&gt;&lt;b&gt;&lt;i&gt;f&lt;/i&gt;(z)&lt;/b&gt;&lt;/font&gt;" style="ellipse;whiteSpace=wrap;html=1;aspect=fixed;" vertex="1" parent="1">
          <mxGeometry x="170" y="130" width="60" height="60" as="geometry" />
        </mxCell>
        <mxCell id="i9pwe_ZCIWaeu2GIBXmg-2" value="" style="endArrow=classic;html=1;rounded=0;entryX=0;entryY=0.5;entryDx=0;entryDy=0;exitX=1;exitY=0.5;exitDx=0;exitDy=0;" edge="1" parent="1" source="i9pwe_ZCIWaeu2GIBXmg-7" target="i9pwe_ZCIWaeu2GIBXmg-1">
          <mxGeometry width="50" height="50" relative="1" as="geometry">
            <mxPoint x="120" y="210" as="sourcePoint" />
            <mxPoint x="200" y="200" as="targetPoint" />
          </mxGeometry>
        </mxCell>
        <mxCell id="i9pwe_ZCIWaeu2GIBXmg-9" value="&lt;font style=&quot;font-size: 14px;&quot; face=&quot;Times New Roman&quot;&gt;&lt;b&gt;w2&lt;/b&gt;&lt;/font&gt;" style="edgeLabel;html=1;align=center;verticalAlign=middle;resizable=0;points=[];" vertex="1" connectable="0" parent="i9pwe_ZCIWaeu2GIBXmg-2">
          <mxGeometry x="0.2355" y="-2" relative="1" as="geometry">
            <mxPoint x="-2" y="17" as="offset" />
          </mxGeometry>
        </mxCell>
        <mxCell id="i9pwe_ZCIWaeu2GIBXmg-3" value="" style="endArrow=classic;html=1;rounded=0;entryX=0;entryY=0.5;entryDx=0;entryDy=0;exitX=1;exitY=0.5;exitDx=0;exitDy=0;" edge="1" parent="1" source="i9pwe_ZCIWaeu2GIBXmg-6" target="i9pwe_ZCIWaeu2GIBXmg-1">
          <mxGeometry width="50" height="50" relative="1" as="geometry">
            <mxPoint x="120" y="160" as="sourcePoint" />
            <mxPoint x="80" y="70" as="targetPoint" />
          </mxGeometry>
        </mxCell>
        <mxCell id="i9pwe_ZCIWaeu2GIBXmg-8" value="&lt;font style=&quot;font-size: 14px;&quot; face=&quot;Times New Roman&quot;&gt;&lt;b&gt;w1&lt;/b&gt;&lt;/font&gt;" style="edgeLabel;html=1;align=center;verticalAlign=middle;resizable=0;points=[];" vertex="1" connectable="0" parent="i9pwe_ZCIWaeu2GIBXmg-3">
          <mxGeometry x="-0.0228" y="3" relative="1" as="geometry">
            <mxPoint x="-1" y="-12" as="offset" />
          </mxGeometry>
        </mxCell>
        <mxCell id="i9pwe_ZCIWaeu2GIBXmg-4" value="" style="endArrow=classic;html=1;rounded=0;entryX=0.5;entryY=1;entryDx=0;entryDy=0;" edge="1" parent="1" target="i9pwe_ZCIWaeu2GIBXmg-1">
          <mxGeometry width="50" height="50" relative="1" as="geometry">
            <mxPoint x="200" y="220" as="sourcePoint" />
            <mxPoint x="310" y="70" as="targetPoint" />
          </mxGeometry>
        </mxCell>
        <mxCell id="i9pwe_ZCIWaeu2GIBXmg-10" value="&lt;font style=&quot;font-size: 14px;&quot; face=&quot;Times New Roman&quot;&gt;&lt;b&gt;b&lt;/b&gt;&lt;/font&gt;" style="edgeLabel;html=1;align=center;verticalAlign=middle;resizable=0;points=[];" vertex="1" connectable="0" parent="i9pwe_ZCIWaeu2GIBXmg-4">
          <mxGeometry x="-0.2689" y="-2" relative="1" as="geometry">
            <mxPoint x="8" y="1" as="offset" />
          </mxGeometry>
        </mxCell>
        <mxCell id="i9pwe_ZCIWaeu2GIBXmg-6" value="x1" style="text;html=1;align=center;verticalAlign=middle;whiteSpace=wrap;rounded=0;fontFamily=Times New Roman;fontSize=14;fontStyle=1" vertex="1" parent="1">
          <mxGeometry x="100" y="120" width="30" height="20" as="geometry" />
        </mxCell>
        <mxCell id="i9pwe_ZCIWaeu2GIBXmg-7" value="x2" style="text;html=1;align=center;verticalAlign=middle;whiteSpace=wrap;rounded=0;fontFamily=Times New Roman;fontSize=14;fontStyle=1" vertex="1" parent="1">
          <mxGeometry x="100" y="180" width="30" height="20" as="geometry" />
        </mxCell>
        <mxCell id="i9pwe_ZCIWaeu2GIBXmg-12" value="" style="endArrow=classic;html=1;rounded=0;exitX=1;exitY=0.5;exitDx=0;exitDy=0;entryX=0;entryY=0.5;entryDx=0;entryDy=0;" edge="1" parent="1" source="i9pwe_ZCIWaeu2GIBXmg-1" target="i9pwe_ZCIWaeu2GIBXmg-11">
          <mxGeometry width="50" height="50" relative="1" as="geometry">
            <mxPoint x="200" y="140" as="sourcePoint" />
            <mxPoint x="270" y="170" as="targetPoint" />
          </mxGeometry>
        </mxCell>
        <mxCell id="i9pwe_ZCIWaeu2GIBXmg-11" value="&lt;font style=&quot;font-size: 14px;&quot; face=&quot;Times New Roman&quot;&gt;&lt;b&gt;y&lt;/b&gt;&lt;/font&gt;" style="text;html=1;align=center;verticalAlign=middle;whiteSpace=wrap;rounded=0;" vertex="1" parent="1">
          <mxGeometry x="260" y="150" width="20" height="20" as="geometry" />
        </mxCell>
        <mxCell id="i9pwe_ZCIWaeu2GIBXmg-31" style="edgeStyle=orthogonalEdgeStyle;rounded=0;orthogonalLoop=1;jettySize=auto;html=1;exitX=0.5;exitY=1;exitDx=0;exitDy=0;entryX=0.5;entryY=0;entryDx=0;entryDy=0;" edge="1" parent="1" source="i9pwe_ZCIWaeu2GIBXmg-15" target="i9pwe_ZCIWaeu2GIBXmg-29">
          <mxGeometry relative="1" as="geometry" />
        </mxCell>
        <mxCell id="i9pwe_ZCIWaeu2GIBXmg-34" style="edgeStyle=orthogonalEdgeStyle;rounded=0;orthogonalLoop=1;jettySize=auto;html=1;exitX=1;exitY=0.5;exitDx=0;exitDy=0;entryX=0;entryY=0.5;entryDx=0;entryDy=0;" edge="1" parent="1" source="i9pwe_ZCIWaeu2GIBXmg-15" target="i9pwe_ZCIWaeu2GIBXmg-28">
          <mxGeometry relative="1" as="geometry" />
        </mxCell>
        <mxCell id="i9pwe_ZCIWaeu2GIBXmg-15" value="for each epoch" style="rhombus;whiteSpace=wrap;html=1;fontFamily=Times New Roman;fontSize=14;" vertex="1" parent="1">
          <mxGeometry x="400" y="290" width="130" height="70" as="geometry" />
        </mxCell>
        <mxCell id="i9pwe_ZCIWaeu2GIBXmg-27" style="edgeStyle=orthogonalEdgeStyle;rounded=0;orthogonalLoop=1;jettySize=auto;html=1;exitX=0.5;exitY=1;exitDx=0;exitDy=0;entryX=0.5;entryY=0;entryDx=0;entryDy=0;" edge="1" parent="1" source="i9pwe_ZCIWaeu2GIBXmg-16" target="i9pwe_ZCIWaeu2GIBXmg-15">
          <mxGeometry relative="1" as="geometry" />
        </mxCell>
        <mxCell id="i9pwe_ZCIWaeu2GIBXmg-16" value="Start" style="ellipse;whiteSpace=wrap;html=1;fontFamily=Times New Roman;fontSize=14;fontStyle=1;strokeWidth=2;" vertex="1" parent="1">
          <mxGeometry x="425" y="220" width="80" height="50" as="geometry" />
        </mxCell>
        <mxCell id="i9pwe_ZCIWaeu2GIBXmg-24" style="edgeStyle=orthogonalEdgeStyle;rounded=0;orthogonalLoop=1;jettySize=auto;html=1;" edge="1" parent="1" source="i9pwe_ZCIWaeu2GIBXmg-17" target="i9pwe_ZCIWaeu2GIBXmg-21">
          <mxGeometry relative="1" as="geometry" />
        </mxCell>
        <mxCell id="i9pwe_ZCIWaeu2GIBXmg-17" value="count output" style="rounded=0;whiteSpace=wrap;html=1;fontFamily=Times New Roman;fontSize=14;" vertex="1" parent="1">
          <mxGeometry x="417.5" y="480" width="95" height="40" as="geometry" />
        </mxCell>
        <mxCell id="i9pwe_ZCIWaeu2GIBXmg-25" style="edgeStyle=orthogonalEdgeStyle;rounded=0;orthogonalLoop=1;jettySize=auto;html=1;exitX=0.5;exitY=1;exitDx=0;exitDy=0;" edge="1" parent="1" source="i9pwe_ZCIWaeu2GIBXmg-21" target="i9pwe_ZCIWaeu2GIBXmg-22">
          <mxGeometry relative="1" as="geometry" />
        </mxCell>
        <mxCell id="i9pwe_ZCIWaeu2GIBXmg-21" value="count error" style="rounded=0;whiteSpace=wrap;html=1;fontFamily=Times New Roman;fontSize=14;" vertex="1" parent="1">
          <mxGeometry x="417.5" y="540" width="95" height="40" as="geometry" />
        </mxCell>
        <mxCell id="i9pwe_ZCIWaeu2GIBXmg-32" style="edgeStyle=orthogonalEdgeStyle;rounded=0;orthogonalLoop=1;jettySize=auto;html=1;exitX=0.5;exitY=1;exitDx=0;exitDy=0;entryX=0;entryY=0.5;entryDx=0;entryDy=0;" edge="1" parent="1" source="i9pwe_ZCIWaeu2GIBXmg-22" target="i9pwe_ZCIWaeu2GIBXmg-29">
          <mxGeometry relative="1" as="geometry" />
        </mxCell>
        <mxCell id="i9pwe_ZCIWaeu2GIBXmg-22" value="adjust parameters" style="rounded=0;whiteSpace=wrap;html=1;fontFamily=Times New Roman;fontSize=14;" vertex="1" parent="1">
          <mxGeometry x="417.5" y="600" width="95" height="40" as="geometry" />
        </mxCell>
        <mxCell id="i9pwe_ZCIWaeu2GIBXmg-28" value="End" style="ellipse;whiteSpace=wrap;html=1;fontFamily=Times New Roman;fontSize=14;fontStyle=1;strokeWidth=2;" vertex="1" parent="1">
          <mxGeometry x="560" y="300" width="80" height="50" as="geometry" />
        </mxCell>
        <mxCell id="i9pwe_ZCIWaeu2GIBXmg-30" style="edgeStyle=orthogonalEdgeStyle;rounded=0;orthogonalLoop=1;jettySize=auto;html=1;exitX=0.5;exitY=1;exitDx=0;exitDy=0;entryX=0.5;entryY=0;entryDx=0;entryDy=0;" edge="1" parent="1" source="i9pwe_ZCIWaeu2GIBXmg-29" target="i9pwe_ZCIWaeu2GIBXmg-17">
          <mxGeometry relative="1" as="geometry" />
        </mxCell>
        <mxCell id="i9pwe_ZCIWaeu2GIBXmg-33" style="edgeStyle=orthogonalEdgeStyle;rounded=0;orthogonalLoop=1;jettySize=auto;html=1;exitX=1;exitY=0.5;exitDx=0;exitDy=0;entryX=0;entryY=0.5;entryDx=0;entryDy=0;" edge="1" parent="1" source="i9pwe_ZCIWaeu2GIBXmg-29" target="i9pwe_ZCIWaeu2GIBXmg-15">
          <mxGeometry relative="1" as="geometry" />
        </mxCell>
        <mxCell id="i9pwe_ZCIWaeu2GIBXmg-29" value="for each input" style="rhombus;whiteSpace=wrap;html=1;fontFamily=Times New Roman;fontSize=14;" vertex="1" parent="1">
          <mxGeometry x="400" y="390" width="130" height="70" as="geometry" />
        </mxCell>
      </root>
    </mxGraphModel>
  </diagram>
</mxfile>
